<?xml version="1.0" encoding="iso-8859-1"?>
<!-- Generator: Adobe Illustrator 19.0.0, SVG Export Plug-In . SVG Version: 6.00 Build 0)  -->
<svg version="1.1" id="Layer_1" xmlns="http://www.w3.org/2000/svg" xmlns:xlink="http://www.w3.org/1999/xlink" x="0px" y="0px"
	 viewBox="0 0 512 512" style="enable-background:new 0 0 512 512;" xml:space="preserve">
<circle style="fill:#273B7A;" cx="256" cy="256" r="256"/>
<path style="fill:#121149;" d="M498.112,339.347L316.49,157.727l-12.048,4.494L256,113.778l-26.145,75.852l-11.24,39.209
	l100.397,100.397l-2.45,2.45l-34.569-34.568l-69.953,2.269h-37.064l-60.95,112.387l96.128,96.128C225.03,510.59,240.35,512,256,512
	C368.202,512,463.534,439.811,498.112,339.347z"/>
<path style="fill:#FFEDB5;" d="M401.606,278.219c-3.303-4.591-9.307-6.397-14.601-4.41c-0.076,0.029-0.152,0.055-0.228,0.081
	l-89.619,29.836c0.019,0.721,0.005,1.445-0.043,2.174c-0.748,11.445-9.599,20.639-20.971,21.792l-54.01,5.61
	c-3.417,0.357-6.472-2.126-6.827-5.541c-0.357-3.417,2.126-6.551,5.541-6.827l54.01-5.61c5.33-0.581,9.495-4.86,9.847-10.235
	c0.191-2.934-0.772-5.766-2.712-7.975c-1.939-2.21-4.624-3.532-7.558-3.724l-71.711-4.675c-8.054-0.522-16.05,1.255-23.121,5.148
	l-94.575,52.079l25.612,51.645l23.757-20.725c10.09-8.801,23.455-12.593,36.667-10.397l79.41,13.196
	c14.551,1.934,29.139-1.695,41.088-10.218l108.118-74.461C404.513,290.763,405.371,283.45,401.606,278.219z"/>
<g>
	<path style="fill:#FEE187;" d="M274.856,315.326c5.33-0.581,9.495-4.86,9.847-10.235c0.191-2.934-0.772-5.766-2.712-7.975
		c-1.939-2.21-4.624-3.532-7.558-3.724l-15.948-1.04v24.673L274.856,315.326z"/>
	<path style="fill:#FEE187;" d="M401.606,278.219c-3.303-4.591-9.307-6.397-14.601-4.41c-0.076,0.029-0.152,0.055-0.228,0.081
		l-89.619,29.836c0.019,0.721,0.005,1.445-0.043,2.174c-0.748,11.445-9.599,20.639-20.971,21.792l-17.653,1.834v50.641
		c11.812-0.072,23.323-3.765,33.073-10.721l108.118-74.459C404.513,290.763,405.371,283.45,401.606,278.219z"/>
</g>
<polygon style="fill:#FFC61B;" points="256,113.778 277.278,148.094 316.49,157.727 290.43,188.568 293.385,228.838 256,213.583 
	218.615,228.838 221.57,188.568 195.51,157.727 234.722,148.094 "/>
<polygon style="fill:#EAA22F;" points="256,113.778 277.278,148.094 316.49,157.727 290.43,188.568 293.385,228.838 256,213.583 "/>
<rect x="88.927" y="330.54" transform="matrix(0.8256 -0.5643 0.5643 0.8256 -189.2337 125.6507)" style="fill:#D35933;" width="39.418" height="76.78"/>
<polygon style="fill:#B54324;" points="146.568,389.529 124.947,357.897 92.307,379.997 114.026,411.772 "/>
<g>
</g>
<g>
</g>
<g>
</g>
<g>
</g>
<g>
</g>
<g>
</g>
<g>
</g>
<g>
</g>
<g>
</g>
<g>
</g>
<g>
</g>
<g>
</g>
<g>
</g>
<g>
</g>
<g>
</g>
</svg>
